<?xml version="1.0" encoding="UTF-8" ?>
<!DOCTYPE svg PUBLIC "-//W3C//DTD SVG 1.1//EN" "http://www.w3.org/Graphics/SVG/1.1/DTD/svg11.dtd">
<svg width="1024pt" height="1024pt" viewBox="0 0 1024 1024" version="1.1" xmlns="http://www.w3.org/2000/svg">
<g id="#fcfdffff">
<path fill="#fcfdff" opacity="1.00" d=" M 0.00 0.00 L 1024.00 0.00 L 1024.00 1024.00 L 0.00 1024.00 L 0.00 0.00 M 506.06 281.58 C 498.95 282.01 491.76 281.36 484.73 282.78 C 465.16 284.43 445.54 287.80 426.36 292.35 C 422.73 293.72 418.80 294.19 415.31 295.91 L 414.82 295.67 C 393.38 300.97 372.56 308.44 351.80 315.90 C 347.62 317.72 343.56 319.84 339.23 321.32 C 331.32 324.63 323.81 328.85 315.74 331.77 C 308.76 335.06 301.96 338.76 295.07 342.25 C 284.62 348.06 273.45 353.14 264.75 361.50 C 259.93 369.47 259.81 381.34 267.17 387.84 C 270.01 390.51 274.21 392.60 278.11 391.68 C 278.67 391.97 279.81 392.55 280.38 392.83 C 279.29 396.10 279.91 399.62 279.68 403.00 C 279.69 410.72 278.64 418.38 278.69 426.10 C 278.61 428.83 277.75 431.45 277.11 434.09 C 273.01 440.48 266.38 444.43 259.65 447.53 C 256.85 448.77 252.75 449.42 252.09 453.01 C 251.16 457.39 251.04 462.46 253.78 466.26 C 255.60 468.95 257.33 472.30 260.87 472.92 C 262.29 475.44 265.54 475.59 268.01 476.45 C 275.06 478.62 283.13 477.55 289.18 473.28 C 294.42 470.29 300.19 467.92 304.73 463.89 C 308.20 463.71 310.77 461.15 313.74 459.69 C 319.78 456.61 325.50 452.93 331.15 449.19 C 336.71 446.19 342.45 443.50 347.54 439.73 C 352.22 437.62 357.14 435.73 360.76 431.92 C 366.32 432.19 370.50 427.92 375.47 426.13 C 380.11 423.09 385.17 420.89 390.41 419.12 C 393.59 416.61 397.56 415.48 400.80 413.09 C 405.39 413.00 409.55 410.47 413.72 408.75 C 418.89 406.16 424.74 405.40 429.95 402.95 C 434.41 400.07 439.83 399.68 444.69 397.73 C 450.63 396.46 456.01 393.54 461.95 392.27 C 467.00 389.98 472.64 390.48 477.93 389.10 C 492.43 386.02 507.17 383.65 522.05 384.30 C 533.72 383.45 545.39 384.69 557.08 384.54 C 567.82 387.44 579.12 387.95 589.80 391.31 C 598.11 392.92 605.62 396.96 613.64 399.47 C 616.02 400.57 617.88 402.65 620.50 403.28 C 625.25 404.59 630.02 406.12 634.28 408.67 C 637.69 411.02 642.14 410.88 645.50 413.37 C 648.42 415.58 652.06 416.00 655.50 416.86 C 662.54 421.28 670.05 424.91 677.42 428.73 C 682.36 433.44 689.44 434.58 695.20 437.90 C 698.35 441.44 702.78 443.16 706.95 445.15 C 711.28 448.70 716.12 451.61 721.25 453.86 C 729.66 458.40 737.96 463.36 747.18 466.09 C 751.93 468.42 757.15 469.37 762.12 471.07 C 768.69 473.73 775.72 475.15 782.78 475.72 C 791.83 477.31 801.49 477.02 810.01 473.29 C 814.97 471.50 821.18 469.87 822.95 464.19 L 823.82 463.87 C 825.61 459.57 828.42 455.49 828.56 450.68 C 830.21 438.00 819.16 424.62 805.99 425.61 C 801.81 425.49 797.41 427.69 796.04 431.82 C 792.91 435.88 795.06 441.97 792.26 446.29 C 788.94 448.44 784.77 448.49 780.95 448.63 C 772.61 448.60 763.96 448.31 756.26 444.76 C 750.92 443.27 745.66 441.52 740.57 439.31 C 734.35 437.27 729.17 433.09 723.00 430.94 C 711.67 424.36 700.71 416.89 691.60 407.39 C 682.10 399.90 674.19 390.66 665.77 382.04 C 663.13 377.90 659.81 374.29 656.17 371.01 C 656.41 368.42 653.68 367.38 652.68 365.33 C 647.17 356.07 637.82 350.03 632.31 340.76 C 630.87 339.21 630.36 336.30 628.23 335.68 C 621.37 327.27 613.38 319.91 605.33 312.67 C 598.39 306.69 590.30 302.34 582.63 297.41 C 581.40 296.56 579.93 296.23 578.48 296.07 C 570.99 290.16 561.25 288.32 552.30 285.61 C 537.27 281.44 521.54 281.26 506.06 281.58 M 468.74 444.78 C 466.23 445.68 463.49 445.12 460.95 445.91 C 451.17 449.17 441.50 452.73 432.17 457.11 C 416.58 463.43 402.40 472.55 387.86 480.88 C 377.74 487.62 367.29 493.87 357.36 500.90 L 357.36 501.17 C 356.66 501.71 355.27 502.79 354.57 503.33 C 350.14 504.96 346.32 507.77 342.76 510.80 C 334.56 516.35 325.95 521.28 317.70 526.75 C 315.58 528.18 312.88 529.03 311.37 531.20 C 306.02 533.51 301.32 537.15 297.16 541.18 C 295.38 544.13 295.03 548.46 296.38 551.54 C 301.73 554.56 307.37 557.41 313.38 558.87 L 313.48 559.55 C 318.60 563.12 324.40 565.65 329.22 569.68 C 334.03 573.63 339.55 576.59 344.42 580.46 C 347.03 582.48 349.67 584.49 352.67 585.92 L 352.03 586.91 C 352.98 588.25 354.63 588.71 356.01 589.49 C 382.93 606.73 409.76 624.73 439.76 636.25 C 446.36 639.37 453.82 640.35 460.09 644.21 C 461.31 644.96 462.65 645.54 464.08 645.79 C 470.45 646.97 476.69 648.70 482.91 650.49 C 492.40 653.22 502.25 654.36 512.05 655.26 C 528.41 656.13 544.87 655.61 561.01 652.69 C 586.79 647.20 611.65 637.92 635.21 626.15 C 635.31 625.89 635.51 625.37 635.61 625.12 C 635.93 625.34 636.57 625.80 636.90 626.02 C 644.40 623.20 651.83 620.03 658.62 615.71 C 665.67 612.24 672.62 608.55 679.14 604.15 C 688.07 598.68 697.49 594.06 706.14 588.13 C 715.57 582.25 724.88 576.18 734.25 570.20 C 734.96 569.68 735.57 569.05 736.08 568.32 C 740.60 567.45 743.46 563.51 747.21 561.20 C 752.11 558.18 757.61 555.80 761.54 551.45 C 762.97 546.84 764.72 540.30 760.12 536.87 C 754.92 532.94 749.35 529.54 743.83 526.10 C 738.15 521.24 731.43 517.86 725.21 513.78 C 723.65 512.70 721.88 512.04 720.06 511.63 C 719.01 508.84 715.96 507.85 713.66 506.37 C 709.74 504.42 706.23 501.77 702.26 499.95 C 697.01 497.30 692.49 493.43 687.30 490.67 C 675.83 484.09 664.70 476.87 652.70 471.25 C 647.75 468.64 642.79 465.99 637.53 464.03 C 625.83 458.47 614.71 451.48 602.32 447.43 C 587.36 441.59 571.84 437.14 555.97 434.68 C 545.70 433.55 535.31 433.40 525.04 434.43 C 505.90 435.15 487.07 439.37 468.74 444.78 M 257.86 617.81 C 253.70 621.27 251.90 626.78 251.63 632.05 C 251.54 634.68 252.48 637.73 254.94 639.07 C 263.59 643.94 273.31 648.89 278.08 658.06 C 279.20 667.29 279.83 676.72 279.71 686.07 C 279.68 688.54 280.12 690.98 280.55 693.42 C 278.87 694.13 277.08 694.49 275.26 694.49 L 275.43 694.56 C 270.39 695.28 265.31 698.75 264.00 703.88 C 262.21 711.69 263.65 720.71 269.77 726.32 C 274.37 730.07 279.32 733.70 284.71 736.14 C 287.43 738.95 291.28 740.19 294.55 742.25 C 303.00 746.27 311.14 750.89 319.49 755.11 C 322.77 756.47 326.03 757.89 329.18 759.56 C 340.33 765.39 352.22 769.52 363.74 774.53 C 364.93 774.95 366.14 775.77 367.48 775.54 C 375.79 779.77 384.94 782.20 393.84 784.91 C 400.57 787.84 407.79 789.29 414.83 791.27 C 427.49 794.29 439.91 798.52 452.91 799.90 C 459.33 800.49 465.60 802.31 472.06 802.49 C 486.52 804.24 501.13 804.38 515.71 804.24 C 526.29 804.03 536.89 802.75 547.25 800.54 C 558.74 799.02 569.65 794.73 580.35 790.46 C 591.05 785.22 601.10 778.67 610.47 771.34 C 614.16 767.36 618.77 764.45 622.64 760.66 C 625.86 757.56 630.06 755.41 632.40 751.48 C 632.68 751.46 633.23 751.42 633.50 751.40 C 635.94 747.76 639.05 744.51 640.62 740.37 C 641.48 738.40 643.46 737.31 644.92 735.84 C 647.96 733.17 649.54 729.25 652.67 726.66 C 654.11 725.25 656.32 723.87 655.66 721.49 C 660.28 719.26 662.13 714.01 666.14 711.02 C 676.22 700.74 686.60 690.68 698.16 682.09 C 706.65 677.34 714.05 670.91 722.94 666.84 C 737.02 658.16 752.84 652.54 769.07 649.45 C 776.60 649.15 784.14 649.28 791.68 649.44 C 794.97 654.03 793.34 660.19 795.88 665.07 C 797.33 667.22 799.26 669.47 801.96 669.96 C 809.74 671.63 818.56 668.89 823.25 662.26 C 828.65 656.78 830.67 648.53 828.99 641.11 C 825.62 632.29 817.56 625.33 808.09 624.10 C 791.19 622.27 774.20 625.38 758.05 630.24 C 750.92 633.06 743.44 635.01 736.69 638.73 C 729.49 641.11 722.66 644.47 715.87 647.82 C 709.24 650.38 702.71 653.18 696.27 656.18 C 688.14 659.04 680.75 663.60 672.68 666.63 C 668.05 668.18 664.16 671.35 659.39 672.53 C 653.75 674.47 648.65 677.61 643.37 680.31 C 635.23 682.85 627.76 687.01 619.72 689.78 C 604.59 695.79 588.65 699.28 572.92 703.29 C 566.61 704.24 560.27 704.77 554.06 706.25 C 539.39 706.55 524.67 707.48 510.03 706.08 C 501.00 704.34 491.67 704.67 482.79 702.23 C 464.06 698.89 446.27 691.98 428.03 686.72 C 424.31 685.47 421.06 682.55 417.01 682.62 C 411.17 678.88 404.29 677.09 398.45 673.34 C 396.33 671.93 393.79 671.63 391.38 671.09 C 389.12 669.26 386.69 667.63 383.82 666.95 C 378.90 665.69 375.12 662.15 370.61 660.02 C 367.05 658.08 363.08 656.81 360.01 654.06 C 355.02 649.69 348.26 648.59 342.44 645.76 L 342.30 645.33 C 336.48 641.95 330.17 639.42 324.59 635.60 C 315.53 630.17 305.88 625.83 297.04 620.05 C 293.08 617.78 288.81 616.13 284.63 614.33 C 275.92 610.73 265.31 611.94 257.86 617.81 Z" />
</g>
<g id="#b0e1daff">
<path fill="#b0e1da" opacity="1.00" d=" M 506.06 281.58 C 521.54 281.26 537.27 281.44 552.30 285.61 C 561.25 288.32 570.99 290.16 578.48 296.07 C 579.82 297.30 581.26 298.43 582.74 299.52 C 581.60 300.62 580.42 301.68 579.20 302.69 C 578.12 302.28 577.06 301.88 576.00 301.49 C 575.92 304.90 575.89 308.31 575.78 311.73 C 569.87 310.64 563.92 309.79 557.95 309.12 C 554.58 308.89 551.23 309.44 547.86 309.20 C 546.26 308.93 544.81 309.63 543.40 310.26 C 530.13 309.62 516.83 309.52 503.55 309.87 C 503.78 309.31 504.25 308.19 504.49 307.63 C 507.08 307.26 509.67 306.94 512.25 306.53 C 508.22 305.49 504.03 305.92 499.93 305.73 C 503.73 304.41 507.66 303.49 511.62 302.71 C 507.66 299.21 505.58 294.34 502.89 289.95 C 500.51 288.84 497.62 288.56 495.97 286.30 C 498.70 286.22 501.43 286.29 504.16 286.38 C 504.07 285.82 503.88 284.71 503.78 284.16 C 500.16 283.29 496.57 284.49 492.97 284.74 C 490.07 284.97 487.41 283.64 484.73 282.78 C 491.76 281.36 498.95 282.01 506.06 281.58 Z" />
</g>
<g id="#a1e0d8ff">
<path fill="#a1e0d8" opacity="1.00" d=" M 426.36 292.35 C 445.54 287.80 465.16 284.43 484.73 282.78 C 487.41 283.64 490.07 284.97 492.97 284.74 C 496.57 284.49 500.16 283.29 503.78 284.16 C 503.88 284.71 504.07 285.82 504.16 286.38 C 501.43 286.29 498.70 286.22 495.97 286.30 C 497.62 288.56 500.51 288.84 502.89 289.95 C 505.58 294.34 507.66 299.21 511.62 302.71 C 507.66 303.49 503.73 304.41 499.93 305.73 C 504.03 305.92 508.22 305.49 512.25 306.53 C 509.67 306.94 507.08 307.26 504.49 307.63 C 504.25 308.19 503.78 309.31 503.55 309.87 C 482.36 311.34 461.39 314.88 440.65 319.39 C 444.33 313.71 451.76 314.58 457.59 314.87 C 457.15 314.33 456.71 313.79 456.27 313.25 C 460.49 310.51 466.20 311.80 469.99 308.43 C 466.69 306.86 463.30 305.37 459.79 304.37 C 456.64 303.44 455.74 308.40 452.80 307.62 C 450.87 306.45 449.26 304.72 448.17 302.76 C 447.73 300.64 447.68 298.46 447.54 296.30 C 446.28 295.89 444.84 294.69 443.52 295.51 C 440.61 297.48 438.45 300.91 434.75 301.46 C 432.44 301.45 430.30 300.43 428.14 299.74 C 429.34 298.85 430.56 297.96 431.77 297.08 C 426.31 296.44 420.29 299.03 415.31 295.91 C 418.80 294.19 422.73 293.72 426.36 292.35 Z" />
</g>
<g id="#90dbd7ff">
<path fill="#90dbd7" opacity="1.00" d=" M 443.52 295.51 C 444.84 294.69 446.28 295.89 447.54 296.30 C 447.68 298.46 447.73 300.64 448.17 302.76 C 449.26 304.72 450.87 306.45 452.80 307.62 C 455.74 308.40 456.64 303.44 459.79 304.37 C 463.30 305.37 466.69 306.86 469.99 308.43 C 466.20 311.80 460.49 310.51 456.27 313.25 C 456.71 313.79 457.15 314.33 457.59 314.87 C 451.76 314.58 444.33 313.71 440.65 319.39 C 429.27 321.48 418.28 325.22 407.08 328.05 C 391.50 332.65 376.33 338.51 361.11 344.14 C 346.73 349.44 333.38 357.05 319.62 363.70 C 310.28 369.19 301.35 375.35 292.55 381.65 C 287.63 384.86 283.70 389.55 278.11 391.68 C 274.21 392.60 270.01 390.51 267.17 387.84 C 259.81 381.34 259.93 369.47 264.75 361.50 C 273.45 353.14 284.62 348.06 295.07 342.25 C 301.96 338.76 308.76 335.06 315.74 331.77 C 323.81 328.85 331.32 324.63 339.23 321.32 C 343.56 319.84 347.62 317.72 351.80 315.90 C 372.56 308.44 393.38 300.97 414.82 295.67 L 415.31 295.91 C 420.29 299.03 426.31 296.44 431.77 297.08 C 430.56 297.96 429.34 298.85 428.14 299.74 C 430.30 300.43 432.44 301.45 434.75 301.46 C 438.45 300.91 440.61 297.48 443.52 295.51 Z" />
</g>
<g id="#bbe2d9ff">
<path fill="#bbe2d9" opacity="1.00" d=" M 578.48 296.07 C 579.93 296.23 581.40 296.56 582.63 297.41 C 590.30 302.34 598.39 306.69 605.33 312.67 C 613.38 319.91 621.37 327.27 628.23 335.68 C 624.06 335.62 621.46 331.82 618.08 329.90 C 605.32 322.20 590.95 317.45 576.34 314.78 C 565.53 312.11 554.43 311.36 543.40 310.26 C 544.81 309.63 546.26 308.93 547.86 309.20 C 551.23 309.44 554.58 308.89 557.95 309.12 C 563.92 309.79 569.87 310.64 575.78 311.73 C 575.89 308.31 575.92 304.90 576.00 301.49 C 577.06 301.88 578.12 302.28 579.20 302.69 C 580.42 301.68 581.60 300.62 582.74 299.52 C 581.26 298.43 579.82 297.30 578.48 296.07 Z" />
</g>
<g id="#fbf2e1ff">
<path fill="#fbf2e1" opacity="1.00" d=" M 440.65 319.39 C 461.39 314.88 482.36 311.34 503.55 309.87 C 516.83 309.52 530.13 309.62 543.40 310.26 C 554.43 311.36 565.53 312.11 576.34 314.78 C 590.95 317.45 605.32 322.20 618.08 329.90 C 621.46 331.82 624.06 335.62 628.23 335.68 C 630.36 336.30 630.87 339.21 632.31 340.76 C 637.82 350.03 647.17 356.07 652.68 365.33 C 653.68 367.38 656.41 368.42 656.17 371.01 C 650.37 366.95 643.98 363.83 638.16 359.79 C 634.72 357.36 630.24 357.43 626.61 355.41 C 624.91 354.52 623.37 353.35 621.62 352.60 C 617.90 351.48 613.89 351.84 610.19 350.67 C 608.57 349.79 607.29 348.41 605.66 347.58 C 601.20 346.20 596.34 346.82 591.97 345.03 C 588.15 343.54 583.99 343.84 580.02 343.07 C 572.44 341.49 564.75 340.21 556.99 340.11 C 550.14 339.85 543.24 340.53 536.42 339.55 C 533.51 339.12 530.57 339.11 527.67 339.57 C 523.16 340.28 518.58 339.85 514.05 340.31 C 494.60 342.72 475.01 344.52 455.86 348.81 C 451.94 349.96 448.17 351.59 444.15 352.37 C 436.96 353.81 430.02 356.22 422.85 357.74 C 420.27 358.39 416.99 358.79 416.05 361.73 C 410.74 362.78 404.87 362.04 400.15 365.13 C 395.94 367.91 390.78 367.94 386.01 369.03 C 382.24 369.75 378.62 371.12 374.82 371.71 C 372.35 372.19 370.24 370.58 368.16 369.55 C 368.75 369.34 369.92 368.93 370.51 368.72 C 365.31 364.56 370.57 357.65 368.85 352.27 C 366.94 352.04 365.03 351.83 363.12 351.65 C 364.93 350.95 366.67 350.07 368.35 349.09 C 368.24 348.43 368.00 347.13 367.88 346.47 C 365.55 345.95 362.77 346.17 361.11 344.14 C 376.33 338.51 391.50 332.65 407.08 328.05 C 418.28 325.22 429.27 321.48 440.65 319.39 Z" />
</g>
<g id="#fbe9d3ff">
<path fill="#fbe9d3" opacity="1.00" d=" M 527.67 339.57 C 530.57 339.11 533.51 339.12 536.42 339.55 C 543.24 340.53 550.14 339.85 556.99 340.11 C 564.75 340.21 572.44 341.49 580.02 343.07 C 583.99 343.84 588.15 343.54 591.97 345.03 C 596.34 346.82 601.20 346.20 605.66 347.58 C 607.29 348.41 608.57 349.79 610.19 350.67 C 613.89 351.84 617.90 351.48 621.62 352.60 C 623.37 353.35 624.91 354.52 626.61 355.41 C 630.24 357.43 634.72 357.36 638.16 359.79 C 643.98 363.83 650.37 366.95 656.17 371.01 C 659.81 374.29 663.13 377.90 665.77 382.04 C 674.19 390.66 682.10 399.90 691.60 407.39 C 700.71 416.89 711.67 424.36 723.00 430.94 C 729.17 433.09 734.35 437.27 740.57 439.31 C 745.66 441.52 750.92 443.27 756.26 444.76 C 763.96 448.31 772.61 448.60 780.95 448.63 C 784.77 448.49 788.94 448.44 792.26 446.29 C 795.06 441.97 792.91 435.88 796.04 431.82 C 796.14 436.25 795.70 440.66 795.31 445.08 C 797.42 441.68 796.63 437.41 798.57 433.94 C 798.80 436.45 798.92 438.96 798.99 441.49 C 801.06 440.27 803.38 439.86 805.76 440.14 C 806.50 445.55 804.60 451.41 807.04 456.48 C 807.67 454.67 808.18 452.82 808.69 450.98 C 810.19 451.89 811.44 453.12 812.62 454.42 C 814.00 456.29 816.58 456.00 818.62 456.53 C 818.81 458.96 818.89 461.41 819.33 463.82 C 820.18 465.02 821.75 464.22 822.95 464.19 C 821.18 469.87 814.97 471.50 810.01 473.29 C 801.49 477.02 791.83 477.31 782.78 475.72 C 775.72 475.15 768.69 473.73 762.12 471.07 C 757.15 469.37 751.93 468.42 747.18 466.09 C 737.96 463.36 729.66 458.40 721.25 453.86 C 716.12 451.61 711.28 448.70 706.95 445.15 C 702.78 443.16 698.35 441.44 695.20 437.90 C 689.44 434.58 682.36 433.44 677.42 428.73 C 670.05 424.91 662.54 421.28 655.50 416.86 C 652.06 416.00 648.42 415.58 645.50 413.37 C 642.14 410.88 637.69 411.02 634.28 408.67 C 630.02 406.12 625.25 404.59 620.50 403.28 C 617.88 402.65 616.02 400.57 613.64 399.47 C 605.62 396.96 598.11 392.92 589.80 391.31 C 579.12 387.95 567.82 387.44 557.08 384.54 C 545.39 384.69 533.72 383.45 522.05 384.30 C 507.17 383.65 492.43 386.02 477.93 389.10 C 472.64 390.48 467.00 389.98 461.95 392.27 C 456.01 393.54 450.63 396.46 444.69 397.73 C 439.83 399.68 434.41 400.07 429.95 402.95 C 424.74 405.40 418.89 406.16 413.72 408.75 C 409.55 410.47 405.39 413.00 400.80 413.09 C 402.27 411.92 403.91 410.97 405.29 409.70 C 405.61 406.66 404.68 403.65 404.40 400.64 C 405.48 400.22 406.57 399.80 407.67 399.39 C 407.96 397.04 408.19 394.69 408.37 392.34 C 410.85 392.13 413.33 391.95 415.82 391.78 C 416.18 389.27 416.23 386.73 415.85 384.23 C 413.33 384.06 410.81 383.87 408.29 383.69 C 407.93 378.59 407.93 373.47 408.28 368.36 C 410.89 368.17 413.50 367.97 416.11 367.75 C 413.75 366.96 411.38 366.25 409.03 365.44 C 410.89 364.26 413.17 364.22 415.24 363.61 C 415.44 363.14 415.85 362.20 416.05 361.73 C 416.99 358.79 420.27 358.39 422.85 357.74 C 430.02 356.22 436.96 353.81 444.15 352.37 C 448.17 351.59 451.94 349.96 455.86 348.81 C 475.01 344.52 494.60 342.72 514.05 340.31 C 518.58 339.85 523.16 340.28 527.67 339.57 Z" />
</g>
<g id="#f9e3cbff">
<path fill="#f9e3cb" opacity="1.00" d=" M 319.62 363.70 C 333.38 357.05 346.73 349.44 361.11 344.14 C 362.77 346.17 365.55 345.95 367.88 346.47 C 368.00 347.13 368.24 348.43 368.35 349.09 C 366.67 350.07 364.93 350.95 363.12 351.65 C 365.03 351.83 366.94 352.04 368.85 352.27 C 370.57 357.65 365.31 364.56 370.51 368.72 C 369.92 368.93 368.75 369.34 368.16 369.55 C 370.24 370.58 372.35 372.19 374.82 371.71 C 378.62 371.12 382.24 369.75 386.01 369.03 C 390.78 367.94 395.94 367.91 400.15 365.13 C 404.87 362.04 410.74 362.78 416.05 361.73 C 415.85 362.20 415.44 363.14 415.24 363.61 C 413.17 364.22 410.89 364.26 409.03 365.44 C 411.38 366.25 413.75 366.96 416.11 367.75 C 413.50 367.97 410.89 368.17 408.28 368.36 C 407.93 373.47 407.93 378.59 408.29 383.69 C 410.81 383.87 413.33 384.06 415.85 384.23 C 416.23 386.73 416.18 389.27 415.82 391.78 C 413.33 391.95 410.85 392.13 408.37 392.34 C 408.19 394.69 407.96 397.04 407.67 399.39 C 406.57 399.80 405.48 400.22 404.40 400.64 C 404.68 403.65 405.61 406.66 405.29 409.70 C 403.91 410.97 402.27 411.92 400.80 413.09 C 397.56 415.48 393.59 416.61 390.41 419.12 C 385.17 420.89 380.11 423.09 375.47 426.13 C 370.50 427.92 366.32 432.19 360.76 431.92 C 362.09 430.69 363.54 429.59 365.02 428.56 C 364.89 427.99 364.76 427.42 364.62 426.86 C 366.70 424.76 369.63 424.15 372.33 423.27 C 372.75 421.24 372.24 418.54 374.31 417.31 C 375.13 418.46 375.96 419.62 376.79 420.78 C 378.97 419.58 381.11 418.29 383.18 416.89 C 382.66 415.28 382.09 413.66 381.85 411.99 C 381.71 409.48 383.70 407.51 383.98 405.10 C 383.88 403.38 383.21 401.76 382.73 400.13 C 378.00 399.56 373.21 400.46 368.51 399.54 C 367.32 393.14 368.69 386.61 367.81 380.17 C 366.54 380.32 365.28 380.47 364.02 380.62 C 364.53 381.35 365.04 382.07 365.55 382.81 C 359.91 383.43 354.26 383.78 348.60 383.50 C 341.81 385.54 335.19 388.88 327.90 388.57 C 329.04 386.58 330.73 384.94 331.74 382.89 C 332.51 376.06 331.73 369.16 331.23 362.33 C 327.38 362.68 325.05 366.81 321.01 366.57 C 316.81 366.60 313.50 369.35 310.53 371.99 C 299.67 377.69 289.84 385.10 280.38 392.83 C 279.81 392.55 278.67 391.97 278.11 391.68 C 283.70 389.55 287.63 384.86 292.55 381.65 C 301.35 375.35 310.28 369.19 319.62 363.70 Z" />
</g>
<g id="#f9dbc4ff">
<path fill="#f9dbc4" opacity="1.00" d=" M 321.01 366.57 C 325.05 366.81 327.38 362.68 331.23 362.33 C 331.73 369.16 332.51 376.06 331.74 382.89 C 330.73 384.94 329.04 386.58 327.90 388.57 C 335.19 388.88 341.81 385.54 348.60 383.50 C 354.26 383.78 359.91 383.43 365.55 382.81 C 365.04 382.07 364.53 381.35 364.02 380.62 C 365.28 380.47 366.54 380.32 367.81 380.17 C 368.69 386.61 367.32 393.14 368.51 399.54 C 373.21 400.46 378.00 399.56 382.73 400.13 C 383.21 401.76 383.88 403.38 383.98 405.10 C 383.70 407.51 381.71 409.48 381.85 411.99 C 382.09 413.66 382.66 415.28 383.18 416.89 C 381.11 418.29 378.97 419.58 376.79 420.78 C 375.96 419.62 375.13 418.46 374.31 417.31 C 372.24 418.54 372.75 421.24 372.33 423.27 C 369.63 424.15 366.70 424.76 364.62 426.86 C 364.76 427.42 364.89 427.99 365.02 428.56 C 363.54 429.59 362.09 430.69 360.76 431.92 C 357.14 435.73 352.22 437.62 347.54 439.73 C 342.45 443.50 336.71 446.19 331.15 449.19 C 325.50 452.93 319.78 456.61 313.74 459.69 C 310.77 461.15 308.20 463.71 304.73 463.89 C 307.05 461.20 310.30 459.72 313.27 457.90 C 313.05 457.18 312.83 456.47 312.61 455.77 C 316.58 456.86 319.14 452.93 322.15 451.14 C 325.39 449.16 328.42 446.87 330.79 443.86 C 331.43 444.79 332.07 445.72 332.72 446.66 C 334.28 446.12 334.66 444.63 334.93 443.17 C 340.65 441.10 344.02 435.62 349.72 433.48 C 349.27 431.64 348.45 429.94 347.42 428.37 C 345.00 428.14 342.59 427.93 340.17 427.75 C 340.11 427.13 340.00 425.89 339.94 425.27 C 340.93 424.47 341.92 423.67 342.92 422.88 C 342.06 421.97 341.21 421.07 340.35 420.18 C 341.56 419.96 342.77 419.75 343.98 419.55 C 342.19 416.93 339.22 415.98 336.26 415.42 C 335.39 410.18 336.84 404.75 335.39 399.62 C 333.57 396.95 330.92 395.00 328.60 392.79 C 324.38 394.71 320.31 396.93 316.24 399.14 C 315.01 399.90 313.56 400.03 312.15 400.08 C 312.67 395.11 311.65 389.92 313.64 385.19 C 313.01 383.20 311.61 381.22 312.06 379.07 C 313.16 377.07 315.36 375.86 316.07 373.62 C 314.14 373.37 312.20 373.04 310.53 371.99 C 313.50 369.35 316.81 366.60 321.01 366.57 Z" />
</g>
<g id="#f6d4bcff">
<path fill="#f6d4bc" opacity="1.00" d=" M 280.38 392.83 C 289.84 385.10 299.67 377.69 310.53 371.99 C 312.20 373.04 314.14 373.37 316.07 373.62 C 315.36 375.86 313.16 377.07 312.06 379.07 C 311.61 381.22 313.01 383.20 313.64 385.19 C 311.65 389.92 312.67 395.11 312.15 400.08 C 313.56 400.03 315.01 399.90 316.24 399.14 C 320.31 396.93 324.38 394.71 328.60 392.79 C 330.92 395.00 333.57 396.95 335.39 399.62 C 336.84 404.75 335.39 410.18 336.26 415.42 C 339.22 415.98 342.19 416.93 343.98 419.55 C 342.77 419.75 341.56 419.96 340.35 420.18 C 341.21 421.07 342.06 421.97 342.92 422.88 C 341.92 423.67 340.93 424.47 339.94 425.27 C 340.00 425.89 340.11 427.13 340.17 427.75 C 342.59 427.93 345.00 428.14 347.42 428.37 C 348.45 429.94 349.27 431.64 349.72 433.48 C 344.02 435.62 340.65 441.10 334.93 443.17 C 334.66 444.63 334.28 446.12 332.72 446.66 C 332.07 445.72 331.43 444.79 330.79 443.86 C 328.42 446.87 325.39 449.16 322.15 451.14 C 319.14 452.93 316.58 456.86 312.61 455.77 C 312.83 456.47 313.05 457.18 313.27 457.90 C 310.30 459.72 307.05 461.20 304.73 463.89 C 300.19 467.92 294.42 470.29 289.18 473.28 C 283.13 477.55 275.06 478.62 268.01 476.45 C 265.54 475.59 262.29 475.44 260.87 472.92 C 266.50 471.12 272.10 474.25 277.73 472.89 C 276.45 469.88 272.48 469.20 271.88 465.82 C 274.42 465.38 277.45 465.41 279.27 463.28 C 280.24 461.06 281.19 458.81 282.89 457.03 C 281.94 456.33 281.00 455.64 280.07 454.96 C 282.83 452.41 286.69 450.11 287.03 445.97 C 287.68 443.16 285.52 441.01 284.52 438.63 C 283.99 436.48 284.02 434.26 283.64 432.10 C 281.23 431.34 280.62 434.68 279.30 436.07 C 279.56 434.42 279.80 432.77 280.03 431.12 C 279.03 432.09 278.04 433.06 277.11 434.09 C 277.75 431.45 278.61 428.83 278.69 426.10 C 278.64 418.38 279.69 410.72 279.68 403.00 C 279.91 399.62 279.29 396.10 280.38 392.83 Z" />
</g>
<g id="#f9e1c8ff">
<path fill="#f9e1c8" opacity="1.00" d=" M 796.04 431.82 C 797.41 427.69 801.81 425.49 805.99 425.61 C 819.16 424.62 830.21 438.00 828.56 450.68 C 828.42 455.49 825.61 459.57 823.82 463.87 L 822.95 464.19 C 821.75 464.22 820.18 465.02 819.33 463.82 C 818.89 461.41 818.81 458.96 818.62 456.53 C 816.58 456.00 814.00 456.29 812.62 454.42 C 811.44 453.12 810.19 451.89 808.69 450.98 C 808.18 452.82 807.67 454.67 807.04 456.48 C 804.60 451.41 806.50 445.55 805.76 440.14 C 803.38 439.86 801.06 440.27 798.99 441.49 C 798.92 438.96 798.80 436.45 798.57 433.94 C 796.63 437.41 797.42 441.68 795.31 445.08 C 795.70 440.66 796.14 436.25 796.04 431.82 Z" />
</g>
<g id="#f3c9b3ff">
<path fill="#f3c9b3" opacity="1.00" d=" M 277.11 434.09 C 278.04 433.06 279.03 432.09 280.03 431.12 C 279.80 432.77 279.56 434.42 279.30 436.07 C 280.62 434.68 281.23 431.34 283.64 432.10 C 284.02 434.26 283.99 436.48 284.52 438.63 C 285.52 441.01 287.68 443.16 287.03 445.97 C 286.69 450.11 282.83 452.41 280.07 454.96 C 281.00 455.64 281.94 456.33 282.89 457.03 C 281.19 458.81 280.24 461.06 279.27 463.28 C 277.45 465.41 274.42 465.38 271.88 465.82 C 272.48 469.20 276.45 469.88 277.73 472.89 C 272.10 474.25 266.50 471.12 260.87 472.92 C 257.33 472.30 255.60 468.95 253.78 466.26 C 251.04 462.46 251.16 457.39 252.09 453.01 C 252.75 449.42 256.85 448.77 259.65 447.53 C 266.38 444.43 273.01 440.48 277.11 434.09 Z" />
</g>
<g id="#95ded7ff">
<path fill="#95ded7" opacity="1.00" d=" M 468.74 444.78 C 487.07 439.37 505.90 435.15 525.04 434.43 C 535.31 433.40 545.70 433.55 555.97 434.68 C 571.84 437.14 587.36 441.59 602.32 447.43 C 614.71 451.48 625.83 458.47 637.53 464.03 C 637.55 468.90 635.38 473.34 634.30 478.00 C 633.15 482.47 633.02 487.13 633.33 491.71 C 637.65 493.91 643.01 495.08 645.90 499.30 C 644.59 503.27 647.22 507.09 647.01 511.11 C 646.08 509.33 645.30 507.46 644.21 505.78 C 641.00 503.90 636.65 504.87 633.80 502.21 C 631.57 499.95 628.31 499.94 625.39 499.53 C 624.50 498.35 623.63 497.17 622.79 495.99 C 620.65 495.72 618.50 495.82 616.39 496.15 C 616.58 500.28 613.73 504.27 615.50 508.29 C 615.92 510.35 614.80 512.44 615.26 514.54 C 615.57 516.40 614.05 517.91 613.88 519.70 C 614.48 524.54 616.31 529.11 617.20 533.89 C 617.68 537.86 616.74 541.83 615.86 545.68 C 615.06 545.11 614.28 544.54 613.50 543.98 C 613.72 536.90 612.65 529.84 611.01 522.97 C 607.63 512.23 601.44 502.35 593.03 494.83 C 587.92 489.50 582.16 484.77 575.69 481.18 C 566.60 476.82 556.82 474.12 546.91 472.45 C 534.98 471.42 522.78 472.67 511.42 476.51 C 502.31 480.24 493.56 485.11 486.16 491.64 C 486.05 488.69 486.15 485.73 486.55 482.81 C 488.00 482.40 489.45 481.98 490.90 481.56 C 489.53 480.72 488.17 479.85 486.73 479.15 C 484.10 477.48 481.12 479.66 478.29 478.85 C 483.06 473.46 488.23 468.26 494.70 464.94 C 492.58 464.44 490.37 464.38 488.28 465.06 C 483.35 466.54 478.18 467.14 473.34 468.94 C 470.24 461.19 467.32 453.38 464.90 445.39 C 463.57 445.54 462.26 445.71 460.95 445.91 C 463.49 445.12 466.23 445.68 468.74 444.78 Z" />
</g>
<g id="#506584ff">
<path fill="#506584" opacity="1.00" d=" M 432.17 457.11 C 441.50 452.73 451.17 449.17 460.95 445.91 C 462.26 445.71 463.57 445.54 464.90 445.39 C 467.32 453.38 470.24 461.19 473.34 468.94 C 458.29 474.97 443.26 481.21 429.05 489.07 C 413.68 498.90 397.77 508.01 383.55 519.51 C 378.98 522.95 374.54 526.57 369.96 530.00 C 368.20 528.56 366.46 526.94 364.16 526.46 C 363.92 525.93 363.67 525.41 363.43 524.90 C 365.48 522.24 363.13 519.40 362.09 516.89 C 360.33 513.64 360.08 509.80 358.16 506.63 C 357.10 505.02 357.43 502.98 357.36 501.17 L 357.36 500.90 C 367.29 493.87 377.74 487.62 387.86 480.88 C 402.40 472.55 416.58 463.43 432.17 457.11 Z" />
</g>
<g id="#fbfdffff">
<path fill="#fbfdff" opacity="1.00" d=" M 488.28 465.06 C 490.37 464.38 492.58 464.44 494.70 464.94 C 488.23 468.26 483.06 473.46 478.29 478.85 C 462.24 496.37 449.37 518.63 449.25 542.99 C 448.59 548.72 449.14 554.51 450.35 560.14 C 453.75 577.01 462.72 592.28 473.97 605.11 C 475.55 607.13 476.99 609.30 479.01 610.94 C 484.60 615.47 489.90 620.59 496.63 623.42 C 488.26 623.73 480.18 620.84 472.15 618.84 C 452.62 612.23 434.05 603.11 416.20 592.83 C 404.27 586.63 393.39 578.69 382.55 570.79 C 377.91 567.21 372.80 564.05 369.10 559.42 C 364.37 553.89 356.91 552.01 351.28 547.66 C 349.76 546.63 350.28 544.45 351.24 543.23 C 354.08 538.86 359.26 537.14 363.53 534.56 C 364.80 533.85 366.09 533.18 367.34 532.43 C 368.00 531.82 369.31 530.61 369.96 530.00 C 374.54 526.57 378.98 522.95 383.55 519.51 C 397.77 508.01 413.68 498.90 429.05 489.07 C 443.26 481.21 458.29 474.97 473.34 468.94 C 478.18 467.14 483.35 466.54 488.28 465.06 Z" />
</g>
<g id="#ccf0f0ff">
<path fill="#ccf0f0" opacity="1.00" d=" M 637.53 464.03 C 642.79 465.99 647.75 468.64 652.70 471.25 C 664.70 476.87 675.83 484.09 687.30 490.67 C 692.49 493.43 697.01 497.30 702.26 499.95 C 706.23 501.77 709.74 504.42 713.66 506.37 C 715.96 507.85 719.01 508.84 720.06 511.63 C 721.52 514.50 724.08 516.67 726.63 518.57 C 730.78 520.19 735.45 520.98 738.75 524.27 C 742.16 526.66 741.84 531.15 742.34 534.82 C 743.16 543.15 745.30 551.77 743.07 560.04 C 742.14 563.88 738.16 565.32 736.08 568.32 C 735.57 569.05 734.96 569.68 734.25 570.20 C 724.88 576.18 715.57 582.25 706.14 588.13 C 697.49 594.06 688.07 598.68 679.14 604.15 C 672.62 608.55 665.67 612.24 658.62 615.71 C 651.83 620.03 644.40 623.20 636.90 626.02 C 636.57 625.80 635.93 625.34 635.61 625.12 C 635.47 615.80 634.96 606.52 634.33 597.24 C 636.80 595.52 639.76 594.80 642.58 593.86 C 642.83 592.49 643.08 591.13 643.30 589.76 L 643.87 590.51 C 644.19 590.90 644.83 591.69 645.14 592.08 C 648.67 590.17 650.88 586.53 654.50 584.72 C 661.44 581.22 667.85 576.78 674.07 572.14 C 681.88 566.44 690.76 562.35 698.37 556.36 C 703.40 552.52 709.49 550.33 714.34 546.23 C 714.59 545.33 714.61 544.44 714.39 543.55 C 708.96 537.68 701.62 534.41 695.23 529.79 C 688.03 525.65 681.43 520.53 673.90 516.97 C 667.21 513.15 660.27 509.59 654.34 504.61 C 652.99 503.34 651.08 503.35 649.37 503.11 C 649.15 503.86 648.72 505.35 648.50 506.10 C 647.83 503.76 647.03 501.45 645.90 499.30 C 643.01 495.08 637.65 493.91 633.33 491.71 C 633.02 487.13 633.15 482.47 634.30 478.00 C 635.38 473.34 637.55 468.90 637.53 464.03 Z" />
</g>
<g id="#edffffff">
<path fill="#edffff" opacity="1.00" d=" M 511.42 476.51 C 522.78 472.67 534.98 471.42 546.91 472.45 C 556.82 474.12 566.60 476.82 575.69 481.18 C 582.16 484.77 587.92 489.50 593.03 494.83 C 601.44 502.35 607.63 512.23 611.01 522.97 C 612.65 529.84 613.72 536.90 613.50 543.98 C 612.57 553.06 611.21 562.25 607.51 570.69 C 605.21 576.11 602.14 581.19 598.83 586.06 C 591.13 595.80 581.12 603.73 570.16 609.50 C 552.61 619.90 530.82 619.85 511.68 614.29 C 503.07 612.44 496.14 606.78 489.00 601.99 C 475.42 592.66 465.45 577.96 462.69 561.64 C 462.53 556.77 461.93 551.91 462.01 547.03 C 462.94 526.50 470.89 505.78 486.16 491.64 C 493.56 485.11 502.31 480.24 511.42 476.51 M 510.82 479.49 C 502.70 482.35 495.98 488.02 489.97 494.03 C 484.80 499.91 479.35 505.82 476.23 513.12 C 474.02 519.41 470.81 525.39 469.77 532.05 L 469.78 532.71 C 466.88 541.14 467.09 550.20 467.19 559.00 C 467.22 565.44 469.55 571.68 472.93 577.09 C 476.63 584.04 481.90 590.00 487.08 595.88 C 496.31 606.26 509.81 612.09 523.50 613.27 L 523.76 613.61 C 535.60 615.16 547.58 612.97 558.98 609.81 C 565.87 607.20 572.33 603.54 578.45 599.45 C 583.58 594.94 589.16 590.75 593.02 585.01 C 597.00 578.84 601.36 572.73 603.59 565.66 C 606.04 557.99 608.13 550.07 608.19 541.97 C 607.99 536.21 607.09 530.45 605.30 524.97 C 603.13 514.38 597.20 504.92 590.31 496.75 C 583.30 490.26 575.68 484.23 566.91 480.29 C 557.00 476.68 546.52 474.93 536.07 473.88 C 527.25 472.87 518.95 476.65 510.82 479.49 Z" />
</g>
<g id="#98dfd7ff">
<path fill="#98dfd7" opacity="1.00" d=" M 510.82 479.49 C 518.95 476.65 527.25 472.87 536.07 473.88 C 546.52 474.93 557.00 476.68 566.91 480.29 C 575.68 484.23 583.30 490.26 590.31 496.75 C 597.20 504.92 603.13 514.38 605.30 524.97 C 604.44 526.95 604.70 530.05 602.48 531.08 C 602.33 528.65 602.62 525.94 600.61 524.15 C 598.27 525.31 597.50 527.73 597.12 530.13 C 595.96 528.55 595.02 526.85 594.23 525.09 C 594.16 525.86 594.03 527.41 593.97 528.18 C 588.81 512.08 575.71 499.27 560.26 492.87 C 548.58 488.45 535.64 487.20 523.38 489.74 C 516.70 491.24 510.68 494.62 504.65 497.73 C 490.77 505.79 482.17 520.91 479.56 536.46 L 478.20 536.09 C 478.69 533.82 478.83 531.50 479.01 529.20 C 476.75 530.64 474.50 532.09 472.26 533.56 C 472.11 532.06 471.97 530.57 471.84 529.08 C 471.15 530.07 470.45 531.05 469.77 532.05 C 470.81 525.39 474.02 519.41 476.23 513.12 C 479.35 505.82 484.80 499.91 489.97 494.03 C 495.98 488.02 502.70 482.35 510.82 479.49 Z" />
</g>
<g id="#83cbd6ff">
<path fill="#83cbd6" opacity="1.00" d=" M 478.29 478.85 C 481.12 479.66 484.10 477.48 486.73 479.15 C 488.17 479.85 489.53 480.72 490.90 481.56 C 489.45 481.98 488.00 482.40 486.55 482.81 C 486.15 485.73 486.05 488.69 486.16 491.64 C 470.89 505.78 462.94 526.50 462.01 547.03 C 461.93 551.91 462.53 556.77 462.69 561.64 C 462.30 562.71 461.90 563.78 461.50 564.86 C 460.90 561.19 460.01 557.59 459.01 554.01 C 457.66 549.41 458.20 544.58 457.88 539.86 C 457.03 543.43 454.09 546.23 454.07 550.02 C 453.51 553.52 454.55 556.92 455.96 560.08 C 457.26 562.59 455.44 565.15 454.33 567.36 C 453.10 564.01 452.04 560.60 451.28 557.11 C 450.95 558.11 450.65 559.12 450.35 560.14 C 449.14 554.51 448.59 548.72 449.25 542.99 C 449.37 518.63 462.24 496.37 478.29 478.85 Z" />
</g>
<g id="#f9feffff">
<path fill="#f9feff" opacity="1.00" d=" M 523.38 489.74 C 535.64 487.20 548.58 488.45 560.26 492.87 C 575.71 499.27 588.81 512.08 593.97 528.18 C 598.43 541.86 596.73 557.58 588.80 569.67 C 583.84 577.30 578.40 585.02 570.49 589.83 C 560.78 595.84 549.94 600.26 538.53 601.56 C 534.67 601.52 530.74 601.88 526.95 600.98 C 519.63 599.33 512.22 597.42 505.81 593.38 C 496.54 588.29 488.27 580.99 483.52 571.41 C 476.42 561.25 477.57 548.04 479.56 536.46 C 482.17 520.91 490.77 505.79 504.65 497.73 C 510.68 494.62 516.70 491.24 523.38 489.74 M 524.83 499.07 C 515.89 502.18 506.88 506.10 500.14 512.96 C 498.21 515.85 495.38 518.13 494.09 521.42 C 490.49 529.91 487.81 538.80 486.78 547.98 C 487.17 563.96 497.03 579.01 510.91 586.70 L 512.11 586.69 L 512.32 587.25 C 521.69 592.34 533.00 593.06 543.47 591.61 C 553.57 590.10 562.74 584.95 570.57 578.58 C 576.55 573.81 580.08 566.83 583.16 560.00 C 585.68 553.45 587.61 546.14 586.37 539.18 C 585.46 528.94 581.61 518.27 573.42 511.61 C 569.47 508.50 565.73 504.96 561.07 502.96 C 549.66 498.48 536.91 495.60 524.83 499.07 Z" />
</g>
<g id="#85d3daff">
<path fill="#85d3da" opacity="1.00" d=" M 616.39 496.15 C 618.50 495.82 620.65 495.72 622.79 495.99 C 623.63 497.17 624.50 498.35 625.39 499.53 C 628.31 499.94 631.57 499.95 633.80 502.21 C 636.65 504.87 641.00 503.90 644.21 505.78 C 645.30 507.46 646.08 509.33 647.01 511.11 C 647.22 507.09 644.59 503.27 645.90 499.30 C 647.03 501.45 647.83 503.76 648.50 506.10 C 655.02 525.71 654.83 547.05 650.25 567.07 C 648.55 574.99 646.07 582.71 643.87 590.51 L 643.30 589.76 C 642.63 585.55 644.27 581.69 646.09 578.02 C 645.82 577.49 645.29 576.45 645.02 575.92 C 644.39 576.85 643.78 577.78 643.17 578.73 C 642.68 575.91 642.00 573.13 641.11 570.43 C 640.15 572.12 639.22 573.85 638.32 575.59 C 636.46 575.83 634.59 575.87 632.74 575.73 C 632.09 574.47 631.94 572.85 630.82 571.93 C 627.75 571.29 624.23 571.63 621.91 573.93 C 620.21 575.66 617.74 575.84 615.58 576.65 C 612.39 578.85 610.31 582.86 606.21 583.55 C 603.81 583.83 602.38 585.87 600.84 587.49 C 600.16 587.01 599.49 586.53 598.83 586.06 C 602.14 581.19 605.21 576.11 607.51 570.69 C 611.21 562.25 612.57 553.06 613.50 543.98 C 614.28 544.54 615.06 545.11 615.86 545.68 C 616.74 541.83 617.68 537.86 617.20 533.89 C 616.31 529.11 614.48 524.54 613.88 519.70 C 614.05 517.91 615.57 516.40 615.26 514.54 C 614.80 512.44 615.92 510.35 615.50 508.29 C 613.73 504.27 616.58 500.28 616.39 496.15 Z" />
</g>
<g id="#99d8d4ff">
<path fill="#99d8d4" opacity="1.00" d=" M 524.83 499.07 C 536.91 495.60 549.66 498.48 561.07 502.96 C 565.73 504.96 569.47 508.50 573.42 511.61 C 581.61 518.27 585.46 528.94 586.37 539.18 C 584.97 537.52 583.55 535.90 582.19 534.23 C 582.13 539.00 582.40 544.05 580.08 548.40 C 578.85 547.67 577.97 546.49 578.03 545.02 C 577.72 540.96 578.14 536.87 577.50 532.84 C 576.59 537.93 578.09 543.35 575.93 548.20 C 576.57 537.72 573.36 526.77 565.69 519.35 C 559.38 511.90 549.43 508.91 540.05 507.90 C 520.22 505.13 500.23 521.26 498.07 541.03 C 496.18 549.43 498.90 558.25 504.08 564.94 C 510.32 572.42 518.61 578.51 528.18 580.82 C 533.13 582.13 538.29 581.66 543.35 581.64 C 536.08 585.64 528.02 580.82 520.37 581.40 C 515.54 581.92 511.85 577.83 507.12 578.06 C 507.16 579.24 507.20 580.43 507.25 581.62 C 508.59 582.35 509.92 583.08 511.26 583.83 C 511.47 584.55 511.89 585.98 512.11 586.69 L 510.91 586.70 C 497.03 579.01 487.17 563.96 486.78 547.98 C 487.81 538.80 490.49 529.91 494.09 521.42 C 495.38 518.13 498.21 515.85 500.14 512.96 C 506.88 506.10 515.89 502.18 524.83 499.07 Z" />
</g>
<g id="#575564ff">
<path fill="#575564" opacity="1.00" d=" M 354.57 503.33 C 355.27 502.79 356.66 501.71 357.36 501.17 C 357.43 502.98 357.10 505.02 358.16 506.63 C 360.08 509.80 360.33 513.64 362.09 516.89 C 363.13 519.40 365.48 522.24 363.43 524.90 C 361.27 520.49 359.31 516.00 357.42 511.48 C 356.49 508.76 355.52 506.04 354.57 503.33 Z" />
</g>
<g id="#f6d5bfff">
<path fill="#f6d5bf" opacity="1.00" d=" M 342.76 510.80 C 346.32 507.77 350.14 504.96 354.57 503.33 C 355.52 506.04 356.49 508.76 357.42 511.48 C 357.41 514.28 357.28 517.16 358.22 519.85 C 359.17 522.94 361.67 525.21 362.90 528.17 C 363.60 530.22 363.37 532.43 363.53 534.56 C 359.26 537.14 354.08 538.86 351.24 543.23 C 350.28 544.45 349.76 546.63 351.28 547.66 C 356.91 552.01 364.37 553.89 369.10 559.42 C 365.56 562.34 363.89 566.82 361.47 570.60 C 358.34 575.60 355.68 580.86 352.67 585.92 C 349.67 584.49 347.03 582.48 344.42 580.46 C 339.55 576.59 334.03 573.63 329.22 569.68 C 324.40 565.65 318.60 563.12 313.48 559.55 L 313.38 558.87 C 312.23 549.68 311.08 540.47 311.37 531.20 C 312.88 529.03 315.58 528.18 317.70 526.75 C 325.95 521.28 334.56 516.35 342.76 510.80 Z" />
</g>
<g id="#fbfdfeff">
<path fill="#fbfdfe" opacity="1.00" d=" M 649.37 503.11 C 651.08 503.35 652.99 503.34 654.34 504.61 C 660.27 509.59 667.21 513.15 673.90 516.97 C 681.43 520.53 688.03 525.65 695.23 529.79 C 701.62 534.41 708.96 537.68 714.39 543.55 C 714.61 544.44 714.59 545.33 714.34 546.23 C 709.49 550.33 703.40 552.52 698.37 556.36 C 690.76 562.35 681.88 566.44 674.07 572.14 C 667.85 576.78 661.44 581.22 654.50 584.72 C 650.88 586.53 648.67 590.17 645.14 592.08 C 644.83 591.69 644.19 590.90 643.87 590.51 C 646.07 582.71 648.55 574.99 650.25 567.07 C 654.83 547.05 655.02 525.71 648.50 506.10 C 648.72 505.35 649.15 503.86 649.37 503.11 Z" />
</g>
<g id="#f7fcfbff">
<path fill="#f7fcfb" opacity="1.00" d=" M 498.07 541.03 C 500.23 521.26 520.22 505.13 540.05 507.90 C 549.43 508.91 559.38 511.90 565.69 519.35 C 573.36 526.77 576.57 537.72 575.93 548.20 C 575.03 552.40 574.01 556.61 572.25 560.55 C 570.68 564.03 567.54 566.35 565.04 569.11 C 562.33 572.05 559.62 575.12 556.02 577.00 C 552.11 579.34 547.58 580.12 543.35 581.64 C 538.29 581.66 533.13 582.13 528.18 580.82 C 518.61 578.51 510.32 572.42 504.08 564.94 C 498.90 558.25 496.18 549.43 498.07 541.03 M 508.98 539.93 C 508.86 541.47 508.73 543.01 508.60 544.55 C 508.62 546.23 508.70 547.91 508.81 549.60 L 509.17 549.83 C 509.97 560.89 519.98 568.96 530.16 571.43 C 545.47 575.02 562.21 563.49 564.22 547.87 C 565.57 545.51 564.78 542.54 564.98 539.94 C 563.71 532.57 558.68 526.73 552.81 522.46 C 547.28 517.22 538.90 517.37 531.85 518.39 C 520.60 519.51 511.37 529.16 508.98 539.93 Z" />
</g>
<g id="#e8d6d3ff">
<path fill="#e8d6d3" opacity="1.00" d=" M 357.42 511.48 C 359.31 516.00 361.27 520.49 363.43 524.90 C 363.67 525.41 363.92 525.93 364.16 526.46 C 365.07 528.52 365.88 530.67 367.34 532.43 C 366.09 533.18 364.80 533.85 363.53 534.56 C 363.37 532.43 363.60 530.22 362.90 528.17 C 361.67 525.21 359.17 522.94 358.22 519.85 C 357.28 517.16 357.41 514.28 357.42 511.48 Z" />
</g>
<g id="#daecefff">
<path fill="#daecef" opacity="1.00" d=" M 720.06 511.63 C 721.88 512.04 723.65 512.70 725.21 513.78 C 731.43 517.86 738.15 521.24 743.83 526.10 C 749.35 529.54 754.92 532.94 760.12 536.87 C 764.72 540.30 762.97 546.84 761.54 551.45 C 757.61 555.80 752.11 558.18 747.21 561.20 C 743.46 563.51 740.60 567.45 736.08 568.32 C 738.16 565.32 742.14 563.88 743.07 560.04 C 745.30 551.77 743.16 543.15 742.34 534.82 C 741.84 531.15 742.16 526.66 738.75 524.27 C 735.45 520.98 730.78 520.19 726.63 518.57 C 724.08 516.67 721.52 514.50 720.06 511.63 Z" />
</g>
<g id="#77c3c6ff">
<path fill="#77c3c6" opacity="1.00" d=" M 508.98 539.93 C 511.37 529.16 520.60 519.51 531.85 518.39 C 538.90 517.37 547.28 517.22 552.81 522.46 C 551.74 523.51 550.64 524.89 548.93 524.38 C 542.96 523.55 536.67 521.47 530.90 524.42 C 522.71 527.55 515.08 532.85 510.32 540.34 C 509.99 540.23 509.31 540.03 508.98 539.93 Z" />
</g>
<g id="#6ea4b2ff">
<path fill="#6ea4b2" opacity="1.00" d=" M 552.81 522.46 C 558.68 526.73 563.71 532.57 564.98 539.94 C 561.74 536.80 557.74 534.62 554.32 531.71 C 551.66 529.51 548.62 527.77 545.19 527.16 C 539.89 523.75 533.50 526.58 528.00 528.00 C 529.02 526.85 529.96 525.63 530.90 524.42 C 536.67 521.47 542.96 523.55 548.93 524.38 C 550.64 524.89 551.74 523.51 552.81 522.46 Z" />
<path fill="#6ea4b2" opacity="1.00" d=" M 450.35 560.14 C 450.65 559.12 450.95 558.11 451.28 557.11 C 452.04 560.60 453.10 564.01 454.33 567.36 C 455.37 571.48 456.36 575.70 458.76 579.28 C 462.86 585.76 466.00 593.04 471.68 598.38 C 474.04 600.73 475.38 603.84 477.00 606.71 C 475.99 606.18 474.97 605.65 473.97 605.11 C 462.72 592.28 453.75 577.01 450.35 560.14 Z" />
</g>
<g id="#93d3d6ff">
<path fill="#93d3d6" opacity="1.00" d=" M 597.12 530.13 C 597.50 527.73 598.27 525.31 600.61 524.15 C 602.62 525.94 602.33 528.65 602.48 531.08 C 604.70 530.05 604.44 526.95 605.30 524.97 C 607.09 530.45 607.99 536.21 608.19 541.97 C 608.13 550.07 606.04 557.99 603.59 565.66 C 601.36 572.73 597.00 578.84 593.02 585.01 C 589.16 590.75 583.58 594.94 578.45 599.45 C 579.92 596.62 579.18 593.62 577.58 591.04 C 578.75 591.19 579.93 591.33 581.12 591.49 C 580.90 591.04 580.46 590.13 580.25 589.68 C 577.78 589.49 574.98 588.85 572.81 590.42 C 572.23 590.27 571.07 589.98 570.49 589.83 C 578.40 585.02 583.84 577.30 588.80 569.67 C 596.73 557.58 598.43 541.86 593.97 528.18 C 594.03 527.41 594.16 525.86 594.23 525.09 C 595.02 526.85 595.96 528.55 597.12 530.13 Z" />
</g>
<g id="#649ebaff">
<path fill="#649eba" opacity="1.00" d=" M 510.32 540.34 C 515.08 532.85 522.71 527.55 530.90 524.42 C 529.96 525.63 529.02 526.85 528.00 528.00 C 521.83 531.63 517.16 537.18 512.55 542.54 C 511.61 543.82 510.06 544.23 508.60 544.55 C 508.73 543.01 508.86 541.47 508.98 539.93 C 509.31 540.03 509.99 540.23 510.32 540.34 Z" />
</g>
<g id="#5d5e67ff">
<path fill="#5d5e67" opacity="1.00" d=" M 364.16 526.46 C 366.46 526.94 368.20 528.56 369.96 530.00 C 369.31 530.61 368.00 531.82 367.34 532.43 C 365.88 530.67 365.07 528.52 364.16 526.46 Z" />
</g>
<g id="#617b97ff">
<path fill="#617b97" opacity="1.00" d=" M 528.00 528.00 C 533.50 526.58 539.89 523.75 545.19 527.16 C 548.62 527.77 551.66 529.51 554.32 531.71 C 557.74 534.62 561.74 536.80 564.98 539.94 C 564.78 542.54 565.57 545.51 564.22 547.87 C 563.29 548.36 562.37 548.85 561.45 549.33 C 560.35 547.25 559.47 544.89 557.49 543.46 C 555.15 541.57 552.22 540.72 549.65 539.25 C 547.63 538.07 546.85 534.74 544.05 535.22 C 538.73 535.63 533.17 532.84 528.08 535.12 C 523.53 539.21 519.74 544.11 516.21 549.08 C 514.37 551.46 514.37 554.56 514.12 557.41 C 513.38 555.55 512.72 553.67 512.18 551.75 C 511.17 551.10 510.17 550.46 509.17 549.83 L 508.81 549.60 C 508.70 547.91 508.62 546.23 508.60 544.55 C 510.06 544.23 511.61 543.82 512.55 542.54 C 517.16 537.18 521.83 531.63 528.00 528.00 Z" />
</g>
<g id="#8de1deff">
<path fill="#8de1de" opacity="1.00" d=" M 469.77 532.05 C 470.45 531.05 471.15 530.07 471.84 529.08 C 471.97 530.57 472.11 532.06 472.26 533.56 C 474.50 532.09 476.75 530.64 479.01 529.20 C 478.83 531.50 478.69 533.82 478.20 536.09 C 474.86 546.11 476.07 556.83 477.77 567.03 C 478.11 569.59 479.74 571.67 480.71 574.00 C 480.82 575.70 479.32 576.81 477.74 576.64 C 473.44 572.78 470.30 567.75 469.26 562.01 C 468.18 552.24 469.43 542.46 469.78 532.71 L 469.77 532.05 Z" />
</g>
<g id="#f0d5e7ff">
<path fill="#f0d5e7" opacity="1.00" d=" M 297.16 541.18 C 301.32 537.15 306.02 533.51 311.37 531.20 C 311.08 540.47 312.23 549.68 313.38 558.87 C 307.37 557.41 301.73 554.56 296.38 551.54 C 295.03 548.46 295.38 544.13 297.16 541.18 Z" />
</g>
<g id="#91d2d4ff">
<path fill="#91d2d4" opacity="1.00" d=" M 467.19 559.00 C 467.09 550.20 466.88 541.14 469.78 532.71 C 469.43 542.46 468.18 552.24 469.26 562.01 C 470.30 567.75 473.44 572.78 477.74 576.64 C 479.32 576.81 480.82 575.70 480.71 574.00 C 479.74 571.67 478.11 569.59 477.77 567.03 C 476.07 556.83 474.86 546.11 478.20 536.09 L 479.56 536.46 C 477.57 548.04 476.42 561.25 483.52 571.41 C 488.27 580.99 496.54 588.29 505.81 593.38 C 512.22 597.42 519.63 599.33 526.95 600.98 C 530.74 601.88 534.67 601.52 538.53 601.56 C 536.79 602.48 534.91 603.05 532.94 603.04 C 528.97 603.15 524.90 604.21 521.01 603.00 C 518.10 602.18 515.19 601.33 512.18 601.09 C 512.50 604.04 511.17 608.96 515.22 609.80 C 517.93 611.07 521.98 610.14 523.50 613.27 C 509.81 612.09 496.31 606.26 487.08 595.88 C 481.90 590.00 476.63 584.04 472.93 577.09 C 469.55 571.68 467.22 565.44 467.19 559.00 Z" />
</g>
<g id="#8dd6d6ff">
<path fill="#8dd6d6" opacity="1.00" d=" M 577.50 532.84 C 578.14 536.87 577.72 540.96 578.03 545.02 C 577.97 546.49 578.85 547.67 580.08 548.40 C 582.40 544.05 582.13 539.00 582.19 534.23 C 583.55 535.90 584.97 537.52 586.37 539.18 C 587.61 546.14 585.68 553.45 583.16 560.00 C 580.08 566.83 576.55 573.81 570.57 578.58 C 562.74 584.95 553.57 590.10 543.47 591.61 C 533.00 593.06 521.69 592.34 512.32 587.25 L 512.11 586.69 C 511.89 585.98 511.47 584.55 511.26 583.83 C 509.92 583.08 508.59 582.35 507.25 581.62 C 507.20 580.43 507.16 579.24 507.12 578.06 C 511.85 577.83 515.54 581.92 520.37 581.40 C 528.02 580.82 536.08 585.64 543.35 581.64 C 547.58 580.12 552.11 579.34 556.02 577.00 C 559.62 575.12 562.33 572.05 565.04 569.11 C 567.54 566.35 570.68 564.03 572.25 560.55 C 574.01 556.61 575.03 552.40 575.93 548.20 C 578.09 543.35 576.59 537.93 577.50 532.84 Z" />
</g>
<g id="#576886ff">
<path fill="#576886" opacity="1.00" d=" M 528.08 535.12 C 533.17 532.84 538.73 535.63 544.05 535.22 C 546.85 534.74 547.63 538.07 549.65 539.25 C 552.22 540.72 555.15 541.57 557.49 543.46 C 559.47 544.89 560.35 547.25 561.45 549.33 C 562.37 548.85 563.29 548.36 564.22 547.87 C 562.21 563.49 545.47 575.02 530.16 571.43 C 519.98 568.96 509.97 560.89 509.17 549.83 C 510.17 550.46 511.17 551.10 512.18 551.75 C 512.72 553.67 513.38 555.55 514.12 557.41 C 514.37 554.56 514.37 551.46 516.21 549.08 C 519.74 544.11 523.53 539.21 528.08 535.12 Z" />
</g>
<g id="#78bcd1ff">
<path fill="#78bcd1" opacity="1.00" d=" M 454.07 550.02 C 454.09 546.23 457.03 543.43 457.88 539.86 C 458.20 544.58 457.66 549.41 459.01 554.01 C 460.01 557.59 460.90 561.19 461.50 564.86 C 461.90 563.78 462.30 562.71 462.69 561.64 C 465.45 577.96 475.42 592.66 489.00 601.99 C 496.14 606.78 503.07 612.44 511.68 614.29 C 530.82 619.85 552.61 619.90 570.16 609.50 C 571.29 610.00 572.42 610.51 573.56 611.03 C 570.54 612.52 567.21 613.42 564.50 615.49 C 561.68 617.66 557.59 616.92 554.98 619.51 C 561.20 620.55 568.29 622.39 574.09 618.96 C 578.05 616.13 583.18 617.84 587.68 616.88 C 587.54 617.36 587.25 618.34 587.11 618.83 C 571.88 623.89 555.96 626.31 540.03 627.82 C 532.00 628.18 523.97 627.89 515.94 627.87 C 509.36 627.18 502.88 625.58 496.63 623.42 C 489.90 620.59 484.60 615.47 479.01 610.94 C 476.99 609.30 475.55 607.13 473.97 605.11 C 474.97 605.65 475.99 606.18 477.00 606.71 C 475.38 603.84 474.04 600.73 471.68 598.38 C 466.00 593.04 462.86 585.76 458.76 579.28 C 456.36 575.70 455.37 571.48 454.33 567.36 C 455.44 565.15 457.26 562.59 455.96 560.08 C 454.55 556.92 453.51 553.52 454.07 550.02 Z" />
</g>
<g id="#4e566bff">
<path fill="#4e566b" opacity="1.00" d=" M 361.47 570.60 C 363.89 566.82 365.56 562.34 369.10 559.42 C 372.80 564.05 377.91 567.21 382.55 570.79 C 381.07 571.42 379.59 572.06 378.11 572.69 C 377.71 569.49 374.81 565.33 371.22 566.14 C 370.81 565.89 369.98 565.39 369.56 565.14 C 368.04 566.02 366.34 566.76 365.20 568.15 C 365.04 572.58 361.34 575.69 358.94 579.08 C 356.61 581.44 356.25 584.82 355.08 587.77 C 356.01 587.56 356.95 587.35 357.89 587.15 C 357.26 587.92 356.63 588.70 356.01 589.49 C 354.63 588.71 352.98 588.25 352.03 586.91 L 352.67 585.92 C 355.68 580.86 358.34 575.60 361.47 570.60 Z" />
</g>
<g id="#536484ff">
<path fill="#536484" opacity="1.00" d=" M 365.20 568.15 C 366.34 566.76 368.04 566.02 369.56 565.14 C 369.98 565.39 370.81 565.89 371.22 566.14 C 374.81 565.33 377.71 569.49 378.11 572.69 C 379.59 572.06 381.07 571.42 382.55 570.79 C 393.39 578.69 404.27 586.63 416.20 592.83 C 434.05 603.11 452.62 612.23 472.15 618.84 C 467.48 626.98 464.87 636.11 460.09 644.21 C 453.82 640.35 446.36 639.37 439.76 636.25 C 409.76 624.73 382.93 606.73 356.01 589.49 C 356.63 588.70 357.26 587.92 357.89 587.15 C 356.95 587.35 356.01 587.56 355.08 587.77 C 356.25 584.82 356.61 581.44 358.94 579.08 C 361.34 575.69 365.04 572.58 365.20 568.15 Z" />
</g>
<g id="#77c6dcff">
<path fill="#77c6dc" opacity="1.00" d=" M 638.32 575.59 C 639.22 573.85 640.15 572.12 641.11 570.43 C 642.00 573.13 642.68 575.91 643.17 578.73 C 643.78 577.78 644.39 576.85 645.02 575.92 C 645.29 576.45 645.82 577.49 646.09 578.02 C 644.27 581.69 642.63 585.55 643.30 589.76 C 643.08 591.13 642.83 592.49 642.58 593.86 C 639.76 594.80 636.80 595.52 634.33 597.24 C 632.05 599.06 629.73 600.86 627.06 602.08 C 620.13 605.29 613.43 609.21 605.96 611.09 C 603.00 611.73 600.43 613.36 597.91 614.94 C 594.42 616.52 590.77 617.72 587.11 618.83 C 587.25 618.34 587.54 617.36 587.68 616.88 C 583.18 617.84 578.05 616.13 574.09 618.96 C 568.29 622.39 561.20 620.55 554.98 619.51 C 557.59 616.92 561.68 617.66 564.50 615.49 C 567.21 613.42 570.54 612.52 573.56 611.03 C 572.42 610.51 571.29 610.00 570.16 609.50 C 581.12 603.73 591.13 595.80 598.83 586.06 C 599.49 586.53 600.16 587.01 600.84 587.49 C 602.38 585.87 603.81 583.83 606.21 583.55 C 610.31 582.86 612.39 578.85 615.58 576.65 C 617.74 575.84 620.21 575.66 621.91 573.93 C 624.23 571.63 627.75 571.29 630.82 571.93 C 631.94 572.85 632.09 574.47 632.74 575.73 C 634.59 575.87 636.46 575.83 638.32 575.59 Z" />
</g>
<g id="#85ced5ff">
<path fill="#85ced5" opacity="1.00" d=" M 572.81 590.42 C 574.98 588.85 577.78 589.49 580.25 589.68 C 580.46 590.13 580.90 591.04 581.12 591.49 C 579.93 591.33 578.75 591.19 577.58 591.04 C 579.18 593.62 579.92 596.62 578.45 599.45 C 572.33 603.54 565.87 607.20 558.98 609.81 C 547.58 612.97 535.60 615.16 523.76 613.61 L 523.50 613.27 C 521.98 610.14 517.93 611.07 515.22 609.80 C 511.17 608.96 512.50 604.04 512.18 601.09 C 515.19 601.33 518.10 602.18 521.01 603.00 C 524.90 604.21 528.97 603.15 532.94 603.04 C 534.91 603.05 536.79 602.48 538.53 601.56 C 549.94 600.26 560.78 595.84 570.49 589.83 C 571.07 589.98 572.23 590.27 572.81 590.42 Z" />
</g>
<g id="#87d8dfff">
<path fill="#87d8df" opacity="1.00" d=" M 627.06 602.08 C 629.73 600.86 632.05 599.06 634.33 597.24 C 634.96 606.52 635.47 615.80 635.61 625.12 C 635.51 625.37 635.31 625.89 635.21 626.15 C 611.65 637.92 586.79 647.20 561.01 652.69 C 544.87 655.61 528.41 656.13 512.05 655.26 C 512.54 655.05 513.51 654.61 514.00 654.40 C 510.87 652.86 507.33 653.31 503.98 653.10 C 497.18 652.50 490.57 650.57 484.35 647.83 C 479.19 646.58 475.01 643.17 470.05 641.43 C 472.65 640.62 475.41 640.16 477.80 638.80 C 478.54 637.34 478.98 635.74 479.51 634.21 C 485.12 632.84 490.48 635.61 496.03 635.96 C 500.38 636.13 504.70 638.59 509.05 637.11 C 515.77 634.56 523.31 634.99 530.01 637.26 C 538.51 636.63 546.92 635.09 555.40 634.32 C 559.57 633.00 563.76 631.71 568.19 631.66 C 566.48 631.14 564.76 630.68 563.02 630.29 C 572.29 630.22 581.58 628.97 590.49 626.40 C 593.23 623.83 596.47 622.01 599.98 620.70 C 599.28 620.36 597.89 619.67 597.20 619.33 C 599.31 617.59 601.68 616.21 604.12 614.98 C 602.04 614.93 599.97 614.88 597.91 614.94 C 600.43 613.36 603.00 611.73 605.96 611.09 C 613.43 609.21 620.13 605.29 627.06 602.08 Z" />
</g>
<g id="#f7d4bcff">
<path fill="#f7d4bc" opacity="1.00" d=" M 257.86 617.81 C 265.31 611.94 275.92 610.73 284.63 614.33 C 288.81 616.13 293.08 617.78 297.04 620.05 C 305.88 625.83 315.53 630.17 324.59 635.60 C 330.17 639.42 336.48 641.95 342.30 645.33 L 342.44 645.76 C 343.19 647.99 343.35 651.33 346.13 651.97 C 350.35 653.10 354.70 654.99 357.25 658.73 C 358.27 660.27 359.65 661.51 361.18 662.55 C 361.09 662.86 360.91 663.49 360.82 663.80 C 361.63 664.25 362.45 664.72 363.28 665.19 C 359.50 665.72 355.31 667.09 354.38 671.31 C 353.47 678.51 354.61 685.84 353.98 693.08 C 353.15 696.02 352.02 698.88 351.44 701.91 C 346.30 700.79 341.53 698.12 336.16 698.17 C 335.87 703.44 336.19 708.72 335.96 714.00 C 335.64 717.65 337.82 720.73 339.24 723.91 C 337.69 724.85 336.13 725.77 334.58 726.70 C 323.84 721.20 313.30 715.34 302.97 709.13 C 297.76 705.88 293.49 701.21 287.83 698.69 C 285.21 697.20 282.67 695.56 280.55 693.42 C 280.12 690.98 279.68 688.54 279.71 686.07 C 279.83 676.72 279.20 667.29 278.08 658.06 C 273.31 648.89 263.59 643.94 254.94 639.07 C 252.48 637.73 251.54 634.68 251.63 632.05 C 251.90 626.78 253.70 621.27 257.86 617.81 Z" />
</g>
<g id="#96dee2ff">
<path fill="#96dee2" opacity="1.00" d=" M 587.11 618.83 C 590.77 617.72 594.42 616.52 597.91 614.94 C 599.97 614.88 602.04 614.93 604.12 614.98 C 601.68 616.21 599.31 617.59 597.20 619.33 C 597.89 619.67 599.28 620.36 599.98 620.70 C 596.47 622.01 593.23 623.83 590.49 626.40 C 581.58 628.97 572.29 630.22 563.02 630.29 C 564.76 630.68 566.48 631.14 568.19 631.66 C 563.76 631.71 559.57 633.00 555.40 634.32 C 546.92 635.09 538.51 636.63 530.01 637.26 C 523.31 634.99 515.77 634.56 509.05 637.11 C 504.70 638.59 500.38 636.13 496.03 635.96 C 490.48 635.61 485.12 632.84 479.51 634.21 C 478.98 635.74 478.54 637.34 477.80 638.80 C 475.41 640.16 472.65 640.62 470.05 641.43 C 475.01 643.17 479.19 646.58 484.35 647.83 C 490.57 650.57 497.18 652.50 503.98 653.10 C 507.33 653.31 510.87 652.86 514.00 654.40 C 513.51 654.61 512.54 655.05 512.05 655.26 C 502.25 654.36 492.40 653.22 482.91 650.49 C 476.69 648.70 470.45 646.97 464.08 645.79 C 462.65 645.54 461.31 644.96 460.09 644.21 C 464.87 636.11 467.48 626.98 472.15 618.84 C 480.18 620.84 488.26 623.73 496.63 623.42 C 502.88 625.58 509.36 627.18 515.94 627.87 C 523.97 627.89 532.00 628.18 540.03 627.82 C 555.96 626.31 571.88 623.89 587.11 618.83 Z" />
</g>
<g id="#fbe9d2ff">
<path fill="#fbe9d2" opacity="1.00" d=" M 758.05 630.24 C 774.20 625.38 791.19 622.27 808.09 624.10 C 817.56 625.33 825.62 632.29 828.99 641.11 C 830.67 648.53 828.65 656.78 823.25 662.26 C 818.56 668.89 809.74 671.63 801.96 669.96 C 799.26 669.47 797.33 667.22 795.88 665.07 C 793.34 660.19 794.97 654.03 791.68 649.44 C 784.14 649.28 776.60 649.15 769.07 649.45 C 752.84 652.54 737.02 658.16 722.94 666.84 C 714.05 670.91 706.65 677.34 698.16 682.09 C 686.60 690.68 676.22 700.74 666.14 711.02 C 662.13 714.01 660.28 719.26 655.66 721.49 C 651.43 723.33 647.37 725.53 643.06 727.16 C 636.42 729.62 630.17 733.03 623.47 735.33 C 619.88 736.43 615.96 736.08 612.49 737.64 C 608.17 739.53 603.53 741.02 598.75 740.59 C 592.17 740.03 585.54 740.03 578.94 740.22 C 575.33 739.90 576.07 745.36 573.03 746.13 C 569.34 746.28 565.77 744.71 562.07 745.07 C 559.93 745.84 558.49 748.18 556.06 748.12 C 543.38 748.18 530.69 748.14 518.01 748.19 C 514.22 748.30 510.84 746.15 507.08 746.17 C 499.42 746.06 491.72 746.39 484.11 745.50 C 477.65 743.64 470.74 743.91 464.50 741.28 C 461.43 740.00 458.12 739.56 454.82 739.57 C 451.17 739.80 448.60 736.52 445.08 736.16 C 441.08 735.57 436.99 735.23 433.24 733.61 C 427.73 731.24 421.46 731.66 416.06 728.97 C 411.56 726.01 405.86 726.38 401.21 723.77 C 397.28 721.60 392.75 721.05 388.72 719.14 C 393.14 718.75 397.63 718.74 401.96 719.87 C 406.51 721.13 411.21 719.84 415.84 720.31 C 416.02 714.95 416.16 709.59 415.83 704.24 C 413.29 704.07 410.74 703.91 408.20 703.76 C 407.89 701.27 407.87 698.76 408.16 696.27 C 410.66 696.07 413.17 695.88 415.67 695.67 C 415.90 693.65 416.13 691.63 416.41 689.62 C 418.23 688.56 420.04 687.48 421.84 686.38 C 420.20 685.16 418.59 683.89 417.01 682.62 C 421.06 682.55 424.31 685.47 428.03 686.72 C 446.27 691.98 464.06 698.89 482.79 702.23 C 491.67 704.67 501.00 704.34 510.03 706.08 C 524.67 707.48 539.39 706.55 554.06 706.25 C 560.27 704.77 566.61 704.24 572.92 703.29 C 588.65 699.28 604.59 695.79 619.72 689.78 C 627.76 687.01 635.23 682.85 643.37 680.31 C 648.65 677.61 653.75 674.47 659.39 672.53 C 664.16 671.35 668.05 668.18 672.68 666.63 C 680.75 663.60 688.14 659.04 696.27 656.18 C 702.71 653.18 709.24 650.38 715.87 647.82 C 722.66 644.47 729.49 641.11 736.69 638.73 C 743.44 635.01 750.92 633.06 758.05 630.24 Z" />
</g>
<g id="#fae3cbff">
<path fill="#fae3cb" opacity="1.00" d=" M 346.13 651.97 C 343.35 651.33 343.19 647.99 342.44 645.76 C 348.26 648.59 355.02 649.69 360.01 654.06 C 363.08 656.81 367.05 658.08 370.61 660.02 C 375.12 662.15 378.90 665.69 383.82 666.95 C 386.69 667.63 389.12 669.26 391.38 671.09 C 393.79 671.63 396.33 671.93 398.45 673.34 C 404.29 677.09 411.17 678.88 417.01 682.62 C 418.59 683.89 420.20 685.16 421.84 686.38 C 420.04 687.48 418.23 688.56 416.41 689.62 C 416.13 691.63 415.90 693.65 415.67 695.67 C 413.17 695.88 410.66 696.07 408.16 696.27 C 407.87 698.76 407.89 701.27 408.20 703.76 C 410.74 703.91 413.29 704.07 415.83 704.24 C 416.16 709.59 416.02 714.95 415.84 720.31 C 411.21 719.84 406.51 721.13 401.96 719.87 C 397.63 718.74 393.14 718.75 388.72 719.14 C 386.17 718.06 383.78 716.53 381.04 716.00 C 378.24 715.52 375.65 716.99 373.30 718.30 C 374.03 718.69 374.77 719.09 375.52 719.49 C 374.36 720.32 372.83 720.89 372.35 722.37 C 370.30 727.00 369.90 732.13 369.35 737.12 C 370.61 738.15 371.88 739.18 373.16 740.21 C 372.25 741.04 371.44 742.36 370.00 742.09 C 363.82 741.91 359.08 737.00 352.92 736.70 C 346.86 733.27 340.60 730.19 334.58 726.70 C 336.13 725.77 337.69 724.85 339.24 723.91 C 337.82 720.73 335.64 717.65 335.96 714.00 C 336.19 708.72 335.87 703.44 336.16 698.17 C 341.53 698.12 346.30 700.79 351.44 701.91 C 352.02 698.88 353.15 696.02 353.98 693.08 C 354.61 685.84 353.47 678.51 354.38 671.31 C 355.31 667.09 359.50 665.72 363.28 665.19 C 362.45 664.72 361.63 664.25 360.82 663.80 C 360.91 663.49 361.09 662.86 361.18 662.55 C 359.65 661.51 358.27 660.27 357.25 658.73 C 354.70 654.99 350.35 653.10 346.13 651.97 Z" />
</g>
<g id="#bad1c6ff">
<path fill="#bad1c6" opacity="1.00" d=" M 280.55 693.42 C 282.67 695.56 285.21 697.20 287.83 698.69 C 288.60 700.00 289.35 701.44 290.74 702.22 C 294.99 705.00 299.12 707.97 302.91 711.36 C 300.92 710.85 298.87 710.36 297.32 708.92 C 290.14 703.97 283.13 698.66 275.43 694.56 L 275.26 694.49 C 277.08 694.49 278.87 694.13 280.55 693.42 Z" />
</g>
<g id="#91dcd7ff">
<path fill="#91dcd7" opacity="1.00" d=" M 264.00 703.88 C 265.31 698.75 270.39 695.28 275.43 694.56 C 283.13 698.66 290.14 703.97 297.32 708.92 C 295.64 710.67 292.41 712.04 292.91 714.94 C 293.67 716.35 295.17 717.41 295.32 719.12 C 295.47 722.24 299.85 722.82 299.92 725.94 C 300.40 729.17 300.15 732.44 299.71 735.67 C 297.33 736.72 294.56 738.57 291.97 737.07 C 289.68 735.86 287.23 735.00 284.71 736.14 C 279.32 733.70 274.37 730.07 269.77 726.32 C 263.65 720.71 262.21 711.69 264.00 703.88 Z" />
</g>
<g id="#c9d9ceff">
<path fill="#c9d9ce" opacity="1.00" d=" M 287.83 698.69 C 293.49 701.21 297.76 705.88 302.97 709.13 C 313.30 715.34 323.84 721.20 334.58 726.70 C 340.60 730.19 346.86 733.27 352.92 736.70 C 353.75 737.34 354.58 738.00 355.42 738.66 C 352.35 738.41 349.53 737.15 346.74 735.96 C 338.71 732.66 331.17 728.32 323.33 724.61 C 321.15 723.72 320.15 721.26 317.97 720.45 C 312.39 718.48 307.42 715.14 302.91 711.36 C 299.12 707.97 294.99 705.00 290.74 702.22 C 289.35 701.44 288.60 700.00 287.83 698.69 Z" />
</g>
<g id="#99dfd8ff">
<path fill="#99dfd8" opacity="1.00" d=" M 297.32 708.92 C 298.87 710.36 300.92 710.85 302.91 711.36 C 307.42 715.14 312.39 718.48 317.97 720.45 C 320.15 721.26 321.15 723.72 323.33 724.61 C 331.17 728.32 338.71 732.66 346.74 735.96 C 349.53 737.15 352.35 738.41 355.42 738.66 C 363.33 741.53 370.51 746.25 378.75 748.26 C 392.58 753.04 406.46 757.73 420.57 761.60 C 429.13 764.76 438.15 766.34 446.90 768.89 C 450.74 772.22 456.17 771.78 460.90 772.39 C 457.47 772.84 454.78 774.97 452.98 777.83 C 456.18 778.57 459.49 778.89 462.75 778.35 C 463.58 777.26 464.43 776.18 465.28 775.11 C 467.92 775.30 470.46 776.07 472.89 777.09 C 472.69 777.58 472.29 778.56 472.09 779.05 C 469.19 780.34 465.60 780.54 463.50 783.19 C 466.05 784.22 468.51 782.46 470.97 781.99 C 473.79 780.98 476.86 781.55 479.40 783.04 C 478.08 784.21 476.33 784.51 474.68 784.91 C 475.98 785.51 477.30 786.10 478.63 786.70 C 478.86 788.21 478.93 789.75 478.73 791.29 C 475.61 792.30 473.16 794.43 470.70 796.47 C 467.67 796.89 464.72 797.61 461.89 798.74 C 459.48 798.81 457.25 797.53 454.84 797.57 C 451.88 797.60 448.81 798.11 446.00 796.93 C 442.86 795.99 440.15 793.67 436.79 793.56 C 432.41 793.49 428.36 791.59 424.08 790.91 C 420.37 790.25 416.71 789.27 413.37 787.50 C 409.57 785.30 404.91 786.69 401.01 784.87 C 397.03 783.13 392.69 782.33 388.91 780.13 C 386.02 778.31 382.56 779.05 379.38 778.56 C 377.11 777.58 375.23 775.84 372.86 775.08 C 371.05 774.75 369.25 775.34 367.48 775.54 C 366.14 775.77 364.93 774.95 363.74 774.53 C 352.22 769.52 340.33 765.39 329.18 759.56 C 326.03 757.89 322.77 756.47 319.49 755.11 C 311.14 750.89 303.00 746.27 294.55 742.25 C 291.28 740.19 287.43 738.95 284.71 736.14 C 287.23 735.00 289.68 735.86 291.97 737.07 C 294.56 738.57 297.33 736.72 299.71 735.67 C 300.15 732.44 300.40 729.17 299.92 725.94 C 299.85 722.82 295.47 722.24 295.32 719.12 C 295.17 717.41 293.67 716.35 292.91 714.94 C 292.41 712.04 295.64 710.67 297.32 708.92 Z" />
</g>
<g id="#fdeedbff">
<path fill="#fdeedb" opacity="1.00" d=" M 373.30 718.30 C 375.65 716.99 378.24 715.52 381.04 716.00 C 383.78 716.53 386.17 718.06 388.72 719.14 C 392.75 721.05 397.28 721.60 401.21 723.77 C 405.86 726.38 411.56 726.01 416.06 728.97 C 411.27 728.80 406.00 728.99 402.10 732.15 C 400.71 733.17 400.88 735.09 400.67 736.63 C 400.48 741.23 399.07 745.66 398.83 750.26 C 397.45 750.12 396.06 750.17 394.68 750.10 C 391.98 749.07 389.94 746.49 386.99 746.15 C 383.75 746.53 380.48 746.91 377.27 746.11 C 377.76 746.82 378.25 747.53 378.75 748.26 C 370.51 746.25 363.33 741.53 355.42 738.66 C 354.58 738.00 353.75 737.34 352.92 736.70 C 359.08 737.00 363.82 741.91 370.00 742.09 C 371.44 742.36 372.25 741.04 373.16 740.21 C 371.88 739.18 370.61 738.15 369.35 737.12 C 369.90 732.13 370.30 727.00 372.35 722.37 C 372.83 720.89 374.36 720.32 375.52 719.49 C 374.77 719.09 374.03 718.69 373.30 718.30 Z" />
</g>
<g id="#fbf4e2ff">
<path fill="#fbf4e2" opacity="1.00" d=" M 643.06 727.16 C 647.37 725.53 651.43 723.33 655.66 721.49 C 656.32 723.87 654.11 725.25 652.67 726.66 C 649.54 729.25 647.96 733.17 644.92 735.84 C 643.46 737.31 641.48 738.40 640.62 740.37 C 639.05 744.51 635.94 747.76 633.50 751.40 C 633.23 751.42 632.68 751.46 632.40 751.48 C 627.92 751.30 625.32 755.62 621.52 757.25 C 615.32 759.86 609.55 763.59 602.85 764.84 C 589.92 769.21 576.45 771.55 563.05 773.84 C 556.75 775.07 550.28 774.24 543.95 775.26 C 519.97 776.54 495.83 776.30 471.99 773.09 C 463.62 771.74 455.28 770.18 446.90 768.89 C 438.15 766.34 429.13 764.76 420.57 761.60 C 406.46 757.73 392.58 753.04 378.75 748.26 C 378.25 747.53 377.76 746.82 377.27 746.11 C 380.48 746.91 383.75 746.53 386.99 746.15 C 389.94 746.49 391.98 749.07 394.68 750.10 C 396.06 750.17 397.45 750.12 398.83 750.26 C 399.07 745.66 400.48 741.23 400.67 736.63 C 400.88 735.09 400.71 733.17 402.10 732.15 C 406.00 728.99 411.27 728.80 416.06 728.97 C 421.46 731.66 427.73 731.24 433.24 733.61 C 436.99 735.23 441.08 735.57 445.08 736.16 C 448.60 736.52 451.17 739.80 454.82 739.57 C 458.12 739.56 461.43 740.00 464.50 741.28 C 470.74 743.91 477.65 743.64 484.11 745.50 C 491.72 746.39 499.42 746.06 507.08 746.17 C 510.84 746.15 514.22 748.30 518.01 748.19 C 530.69 748.14 543.38 748.18 556.06 748.12 C 558.49 748.18 559.93 745.84 562.07 745.07 C 565.77 744.71 569.34 746.28 573.03 746.13 C 576.07 745.36 575.33 739.90 578.94 740.22 C 585.54 740.03 592.17 740.03 598.75 740.59 C 603.53 741.02 608.17 739.53 612.49 737.64 C 615.96 736.08 619.88 736.43 623.47 735.33 C 630.17 733.03 636.42 729.62 643.06 727.16 Z" />
</g>
<g id="#bbe3ddff">
<path fill="#bbe3dd" opacity="1.00" d=" M 621.52 757.25 C 625.32 755.62 627.92 751.30 632.40 751.48 C 630.06 755.41 625.86 757.56 622.64 760.66 C 618.77 764.45 614.16 767.36 610.47 771.34 C 601.10 778.67 591.05 785.22 580.35 790.46 C 569.65 794.73 558.74 799.02 547.25 800.54 C 549.07 798.57 550.45 796.22 552.36 794.33 C 556.57 793.76 561.44 796.74 565.11 793.54 C 563.42 793.16 561.73 792.83 560.04 792.52 C 560.67 792.32 561.94 791.94 562.57 791.74 C 560.43 788.93 557.77 786.56 554.75 784.73 C 556.47 784.33 558.18 783.91 559.90 783.49 C 555.10 781.84 549.95 782.01 545.09 780.68 C 549.47 778.81 554.20 778.02 558.93 777.71 C 557.47 777.16 556.03 776.61 554.58 776.12 C 557.54 775.97 560.48 775.36 563.05 773.84 C 576.45 771.55 589.92 769.21 602.85 764.84 C 609.55 763.59 615.32 759.86 621.52 757.25 Z" />
</g>
<g id="#a3e1d8ff">
<path fill="#a3e1d8" opacity="1.00" d=" M 446.90 768.89 C 455.28 770.18 463.62 771.74 471.99 773.09 C 495.83 776.30 519.97 776.54 543.95 775.26 C 550.28 774.24 556.75 775.07 563.05 773.84 C 560.48 775.36 557.54 775.97 554.58 776.12 C 544.34 775.85 534.20 777.62 524.09 778.90 C 517.25 778.73 510.37 779.36 503.89 781.69 C 507.97 782.14 512.12 781.97 516.18 782.68 C 514.91 783.48 513.57 784.15 512.19 784.71 C 511.81 787.21 512.09 790.02 514.25 791.70 C 516.24 793.30 515.88 796.07 516.41 798.33 C 517.52 798.76 518.64 799.21 519.76 799.67 C 519.78 800.15 519.83 801.11 519.85 801.59 C 518.40 801.81 516.96 802.03 515.52 802.28 C 515.57 802.77 515.66 803.75 515.71 804.24 C 501.13 804.38 486.52 804.24 472.06 802.49 C 465.60 802.31 459.33 800.49 452.91 799.90 C 439.91 798.52 427.49 794.29 414.83 791.27 C 407.79 789.29 400.57 787.84 393.84 784.91 C 384.94 782.20 375.79 779.77 367.48 775.54 C 369.25 775.34 371.05 774.75 372.86 775.08 C 375.23 775.84 377.11 777.58 379.38 778.56 C 382.56 779.05 386.02 778.31 388.91 780.13 C 392.69 782.33 397.03 783.13 401.01 784.87 C 404.91 786.69 409.57 785.30 413.37 787.50 C 416.71 789.27 420.37 790.25 424.08 790.91 C 428.36 791.59 432.41 793.49 436.79 793.56 C 440.15 793.67 442.86 795.99 446.00 796.93 C 448.81 798.11 451.88 797.60 454.84 797.57 C 457.25 797.53 459.48 798.81 461.89 798.74 C 464.72 797.61 467.67 796.89 470.70 796.47 C 473.16 794.43 475.61 792.30 478.73 791.29 C 478.93 789.75 478.86 788.21 478.63 786.70 C 477.30 786.10 475.98 785.51 474.68 784.91 C 476.33 784.51 478.08 784.21 479.40 783.04 C 476.86 781.55 473.79 780.98 470.97 781.99 C 468.51 782.46 466.05 784.22 463.50 783.19 C 465.60 780.54 469.19 780.34 472.09 779.05 C 472.29 778.56 472.69 777.58 472.89 777.09 C 470.46 776.07 467.92 775.30 465.28 775.11 C 464.43 776.18 463.58 777.26 462.75 778.35 C 459.49 778.89 456.18 778.57 452.98 777.83 C 454.78 774.97 457.47 772.84 460.90 772.39 C 456.17 771.78 450.74 772.22 446.90 768.89 Z" />
</g>
<g id="#aee2ddff">
<path fill="#aee2dd" opacity="1.00" d=" M 524.09 778.90 C 534.20 777.62 544.34 775.85 554.58 776.12 C 556.03 776.61 557.47 777.16 558.93 777.71 C 554.20 778.02 549.47 778.81 545.09 780.68 C 549.95 782.01 555.10 781.84 559.90 783.49 C 558.18 783.91 556.47 784.33 554.75 784.73 C 557.77 786.56 560.43 788.93 562.57 791.74 C 561.94 791.94 560.67 792.32 560.04 792.52 C 561.73 792.83 563.42 793.16 565.11 793.54 C 561.44 796.74 556.57 793.76 552.36 794.33 C 550.45 796.22 549.07 798.57 547.25 800.54 C 536.89 802.75 526.29 804.03 515.71 804.24 C 515.66 803.75 515.57 802.77 515.52 802.28 C 516.96 802.03 518.40 801.81 519.85 801.59 C 519.83 801.11 519.78 800.15 519.76 799.67 C 518.64 799.21 517.52 798.76 516.41 798.33 C 515.88 796.07 516.24 793.30 514.25 791.70 C 512.09 790.02 511.81 787.21 512.19 784.71 C 513.57 784.15 514.91 783.48 516.18 782.68 C 512.12 781.97 507.97 782.14 503.89 781.69 C 510.37 779.36 517.25 778.73 524.09 778.90 Z" />
</g>
</svg>
